#!OML:ASF H:\LiuWeirdWalks\Patient Classification 1\Patient 1\Session 1\male.ASF
:FULLY-SPECIFIED
:DEGREES
227
root -0.886232 17.2418 -24.6077 4.45708 8.97166 -6.58631
lowerback 5.80227 11.5956 7.70288
upperback -0.583853 15.9846 0.248217
thorax -1.80184 7.8869 -4.72697
lowerneck -14.1826 -11.3889 -5.58215
upperneck 14.7758 -14.0045 -1.52445
head 7.12013 -7.15845 -1.07381
rclavicle 1.4561e-014 -1.55052e-014
rhumerus 2.34248 -13.664 -71.1044
rradius 43.4146
rwrist -21.5457
rhand -20.8969 3.37119
rfingers 7.12502
rthumb 5.47386 -26.5381
lclavicle 1.4561e-014 -1.55052e-014
lhumerus -59.317 16.2401 44.7946
lradius 34.1282
lwrist 12.418
lhand -15.9553 4.47163
lfingers 7.12502
lthumb 10.2433 34.2022
rfemur 21.8379 -5.80016 30.9491
rtibia -3.49861e-014
rfoot -11.2962 -22.9791
rtoes -12.7187
lfemur -41.4344 -7.98509 -9.06748
ltibia 28.0588
lfoot -9.02752 6.85617
ltoes -17.2918
228
root -0.85623 17.2309 -24.4688 4.58217 8.86588 -6.44887
lowerback 5.83147 11.6479 7.61153
upperback -0.620286 16.0479 0.0840912
thorax -1.82454 7.91818 -4.85441
lowerneck -14.2968 -11.4775 -5.95035
upperneck 14.9509 -14.1033 -1.16309
head 7.25373 -7.19096 -0.937798
rclavicle -9.54166e-014 5.76476e-015
rhumerus 2.76517 -13.7365 -71.0103
rradius 43.6845
rwrist -21.6166
rhand -20.7956 3.45122
rfingers 7.12502
rthumb 5.57166 -26.4555
lclavicle -9.54166e-014 5.76476e-015
lhumerus -59.6875 16.3374 44.126
lradius 33.8971
lwrist 11.9458
lhand -15.6458 4.71081
lfingers 7.12502
lthumb 10.5419 34.4264
rfemur 22.2286 -5.75017 30.6867
rtibia 1.27222e-014
rfoot -11.0009 -22.8443
rtoes -13.3514
lfemur -41.3659 -7.98288 -9.31783
ltibia 28.5776
lfoot -8.27323 6.48539
ltoes -17.5488
229
root -0.825711 17.2268 -24.3279 4.72938 8.7959 -6.19861
lowerback 5.85943 11.6834 7.4128
upperback -0.64893 16.08 -0.108894
thorax -1.86222 7.93485 -4.95898
lowerneck -14.3562 -11.5471 -6.23253
upperneck 14.9988 -14.1885 -0.855036
head 7.32619 -7.21773 -0.819821
rclavicle -1.07642e-013 -9.74045e-015
rhumerus 3.13492 -13.8052 -70.9162
rradius 43.9473
rwrist -21.6391
rhand -20.7067 3.55488
rfingers 7.12502
rthumb 5.65753 -26.3496
lclavicle -1.07642e-013 -9.74045e-015
lhumerus -60.0287 16.4397 43.5168
lradius 33.707
lwrist 11.4419
lhand -15.3453 4.86512
lfingers 7.12502
lthumb 10.8317 34.5658
rfemur 22.6094 -5.73879 30.3008
rtibia 0
rfoot -10.6245 -22.6894
rtoes -13.9625
lfemur -41.3356 -7.92407 -9.75158
ltibia 29.0731
lfoot -7.38651 6.14947
ltoes -17.793
230
root -0.795333 17.2288 -24.1857 4.88731 8.76248 -5.87201
lowerback 5.88165 11.7053 7.13722
upperback -0.659776 16.0868 -0.315226
thorax -1.8978 7.94055 -5.03713
lowerneck -14.3676 -11.6348 -6.49318
upperneck 14.9756 -14.3057 -0.549765
head 7.3666 -7.25932 -0.703685
rclavicle 1.21905e-013 1.33186e-014
rhumerus 3.47159 -13.892 -70.822
rradius 44.1935
rwrist -21.6237
rhand -20.6232 3.68294
rfingers 7.12502
rthumb 5.73817 -26.2194
lclavicle 1.21905e-013 1.33186e-014
lhumerus -60.3149 16.5811 42.9703
lradius 33.5368
lwrist 10.9062
lhand -15.0539 4.9079
lfingers 7.12502
lthumb 11.1127 34.5937
rfemur 22.9813 -5.76724 29.8327
rtibia -7.95139e-014
rfoot -10.149 -22.5145
rtoes -14.5078
lfemur -41.3378 -7.82331 -10.3081
ltibia 29.5485
lfoot -6.42243 5.89268
ltoes -17.9316
231
root -0.764973 17.235 -24.0419 5.04116 8.76735 -5.51673
lowerback 5.89257 11.715 6.83747
upperback -0.650866 16.0738 -0.522182
thorax -1.91532 7.93803 -5.09916
lowerneck -14.2749 -11.7106 -6.63724
upperneck 14.7726 -14.4241 -0.318696
head 7.31602 -7.30369 -0.613113
rclavicle 1.80397e-013 -2.10712e-014
rhumerus 3.75465 -13.9918 -70.7158
rradius 44.4394
rwrist -21.6029
rhand -20.5529 3.80989
rfingers 7.12502
rthumb 5.80601 -26.0906
lclavicle 1.80397e-013 -2.10712e-014
lhumerus -60.5371 16.7399 42.5104
lradius 33.3921
lwrist 10.3766
lhand -14.8045 4.89765
lfingers 7.12502
lthumb 11.3533 34.5703
rfemur 23.3531 -5.83652 29.3347
rtibia -1.39944e-013
rfoot -9.57757 -22.3256
rtoes -14.9559
lfemur -41.3489 -7.71268 -10.9064
ltibia 30.0244
lfoot -5.46501 5.77244
ltoes -17.9681
232
root -0.734279 17.2438 -23.8962 5.18896 8.80696 -5.15194
lowerback 5.88301 11.7113 6.52652
upperback -0.619577 16.0399 -0.717231
thorax -1.90732 7.92691 -5.1363
lowerneck -14.1141 -11.748 -6.65278
upperneck 14.4016 -14.5035 -0.180689
head 7.18086 -7.33254 -0.553309
rclavicle 1.42081e-013 1.33186e-014
rhumerus 3.99948 -14.1021 -70.6014
rradius 44.6728
rwrist -21.5837
rhand -20.4814 3.92907
rfingers 7.12502
rthumb 5.87508 -25.9695
lclavicle 1.42081e-013 1.33186e-014
lhumerus -60.6957 16.9639 42.1158
lradius 33.2483
lwrist 9.81522
lhand -14.5934 4.83279
lfingers 7.12502
lthumb 11.5569 34.4942
rfemur 23.7254 -5.9419 28.8273
rtibia -5.725e-014
rfoot -8.91248 -22.1331
rtoes -15.2685
lfemur -41.3456 -7.59974 -11.5155
ltibia 30.528
lfoot -4.57155 5.82259
ltoes -17.8833
233
root -0.702985 17.2536 -23.7485 5.31591 8.87687 -4.8344
lowerback 5.85968 11.6898 6.26664
upperback -0.574313 15.9855 -0.887351
thorax -1.87349 7.90625 -5.16763
lowerneck -13.8936 -11.7654 -6.61926
upperneck 13.917 -14.564 -0.0672535
head 6.99292 -7.35327 -0.497429
rclavicle -6.40087e-014 -1.55052e-014
rhumerus 4.17284 -14.1962 -70.4814
rradius 44.917
rwrist -21.5759
rhand -20.4246 4.02206
rfingers 7.12502
rthumb 5.92985 -25.875
lclavicle -6.40087e-014 -1.55052e-014
lhumerus -60.8033 17.2299 41.7843
lradius 33.1139
lwrist 9.32194
lhand -14.3873 4.71987
lfingers 7.12502
lthumb 11.7557 34.37
rfemur 24.1033 -6.07683 28.3727
rtibia 4.13472e-014
rfoot -8.12327 -21.9431
rtoes -15.4559
lfemur -41.3103 -7.47127 -12.0701
ltibia 31.0839
lfoot -3.77182 6.03394
ltoes -17.7269
234
root -0.670373 17.2641 -23.5989 5.42706 8.95623 -4.5947
lowerback 5.8047 11.656 6.07886
upperback -0.520663 15.9188 -1.01766
thorax -1.80764 7.87995 -5.18528
lowerneck -13.6561 -11.7516 -6.5737
upperneck 13.3879 -14.5832 0.0406577
head 6.78609 -7.35466 -0.437507
rclavicle 8.3738e-015 1.94809e-014
rhumerus 4.29135 -14.2529 -70.349
rradius 45.1334
rwrist -21.5957
rhand -20.3788 4.12661
rfingers 7.12502
rthumb 5.97414 -25.7692
lclavicle 8.3738e-015 1.94809e-014
lhumerus -60.8745 17.5014 41.5623
lradius 33.0121
lwrist 8.92634
lhand -14.2118 4.62817
lfingers 7.12502
lthumb 11.9249 34.2685
rfemur 24.4761 -6.21671 28.0019
rtibia -3.49861e-014
rfoot -7.2065 -21.7552
rtoes -15.5222
lfemur -41.2405 -7.29545 -12.5431
ltibia 31.6932
lfoot -3.0725 6.37753
ltoes -17.6447
235
root -0.636535 17.2751 -23.4471 5.50553 9.01648 -4.47303
lowerback 5.74186 11.6176 6.00196
upperback -0.471213 15.8547 -1.10222
thorax -1.72559 7.85406 -5.20921
lowerneck -13.3887 -11.6911 -6.34734
upperneck 12.7371 -14.5493 -0.00928925
head 6.50842 -7.33601 -0.437641
rclavicle -9.48451e-014 -2.98177e-015
rhumerus 4.34448 -14.2817 -70.2178
rradius 45.3189
rwrist -21.617
rhand -20.34 4.21044
rfingers 7.12502
rthumb 6.01153 -25.6843
lclavicle -9.48451e-014 -2.98177e-015
lhumerus -60.9166 17.7674 41.4315
lradius 32.9419
lwrist 8.65385
lhand -14.0949 4.60452
lfingers 7.12502
lthumb 12.0376 34.2383
rfemur 24.8489 -6.33302 27.7583
rtibia 5.08889e-014
rfoot -6.13003 -21.5705
rtoes -15.51
lfemur -41.1262 -7.03643 -12.8977
ltibia 32.3421
lfoot -2.46928 6.77062
ltoes -17.6171
236
root -0.601374 17.2872 -23.2939 5.55314 9.04288 -4.45612
lowerback 5.68923 11.5878 6.02818
upperback -0.444975 15.8112 -1.15831
thorax -1.65203 7.83641 -5.25962
lowerneck -13.3033 -11.6794 -6.20132
upperneck 12.3966 -14.5629 -0.0162314
head 6.37299 -7.33809 -0.442414
rclavicle -7.05437e-014 -2.64384e-014
rhumerus 4.30934 -14.3181 -70.0959
rradius 45.4539
rwrist -21.6213
rhand -20.2955 4.30795
rfingers 7.12502
rthumb 6.05457 -25.5855
lclavicle -7.05437e-014 -2.64384e-014
lhumerus -60.9094 17.9658 41.4121
lradius 32.909
lwrist 8.49126
lhand -14.0023 4.62051
lfingers 7.12502
lthumb 12.1268 34.2491
rfemur 25.2182 -6.41152 27.6251
rtibia 3.18055e-014
rfoot -4.86365 -21.3715
rtoes -15.4745
lfemur -40.9659 -6.67362 -13.1612
ltibia 32.9957
lfoot -1.99582 7.07676
ltoes -17.6015
237
root -0.564368 17.3019 -23.1379 5.5798 9.01853 -4.49871
lowerback 5.62856 11.5696 6.10531
upperback -0.433491 15.7873 -1.19102
thorax -1.58053 7.8275 -5.31161
lowerneck -13.2364 -11.617 -5.87739
upperneck 12.0155 -14.5163 -0.182099
head 6.20077 -7.31617 -0.512118
rclavicle -2.18837e-013 4.27387e-015
rhumerus 4.22257 -14.3446 -69.9865
rradius 45.5095
rwrist -21.6207
rhand -20.2664 4.41514
rfingers 7.12502
rthumb 6.08266 -25.4775
lclavicle -2.18837e-013 4.27387e-015
lhumerus -60.8705 18.1371 41.4773
lradius 32.8999
lwrist 8.35018
lhand -13.9242 4.6429
lfingers 7.12502
lthumb 12.2022 34.267
rfemur 25.5814 -6.43729 27.5492
rtibia 6.67916e-014
rfoot -3.41044 -21.1532
rtoes -15.4353
lfemur -40.7544 -6.21922 -13.3834
ltibia 33.6208
lfoot -1.70374 7.20259
ltoes -17.441
238
root -0.526675 17.3198 -22.9804 5.58556 8.94552 -4.56788
lowerback 5.59061 11.5572 6.19185
upperback -0.45058 15.7745 -1.21228
thorax -1.55075 7.82149 -5.36639
lowerneck -13.2376 -11.5496 -5.5057
upperneck 11.7554 -14.4601 -0.409731
head 6.07079 -7.29182 -0.614674
rclavicle 7.98866e-014 -1.46107e-014
rhumerus 4.05385 -14.3693 -69.9136
rradius 45.5017
rwrist -21.5628
rhand -20.2433 4.51721
rfingers 7.12502
rthumb 6.1049 -25.3748
lclavicle 7.98866e-014 -1.46107e-014
lhumerus -60.8183 18.2643 41.604
lradius 32.9217
lwrist 8.29848
lhand -13.8136 4.62035
lfingers 7.12502
lthumb 12.3089 34.2381
rfemur 25.9384 -6.41669 27.4992
rtibia -3.81667e-014
rfoot -1.78359 -20.9179
rtoes -15.369
lfemur -40.4852 -5.68328 -13.6029
ltibia 34.1844
lfoot -1.58832 7.06902
ltoes -17.0156
239
root -0.487722 17.3412 -22.8204 5.56912 8.81619 -4.62452
lowerback 5.56129 11.5467 6.25421
upperback -0.480628 15.7636 -1.22839
thorax -1.54681 7.81517 -5.40883
lowerneck -13.276 -11.4753 -5.12571
upperneck 11.5866 -14.3923 -0.660369
head 5.97419 -7.26295 -0.729933
rclavicle 7.74142e-014 1.09332e-014
rhumerus 3.83568 -14.3637 -69.8803
rradius 45.421
rwrist -21.4691
rhand -20.2433 4.59447
rfingers 7.12502
rthumb 6.10495 -25.2976
lclavicle 7.74142e-014 1.09332e-014
lhumerus -60.7657 18.3332 41.8221
lradius 32.9948
lwrist 8.3669
lhand -13.7438 4.62568
lfingers 7.12502
lthumb 12.3761 34.2393
rfemur 26.2995 -6.3444 27.4269
rtibia -3.81667e-014
rfoot 0.0111822 -20.6479
rtoes -15.2383
lfemur -40.1342 -5.10987 -13.8506
ltibia 34.6698
lfoot -1.64341 6.74605
ltoes -16.2603
240
root -0.447605 17.3662 -22.6574 5.54622 8.65416 -4.60674
lowerback 5.51123 11.532 6.22911
upperback -0.517431 15.7402 -1.25376
thorax -1.56043 7.80257 -5.41559
lowerneck -13.2969 -11.411 -4.83112
upperneck 11.5408 -14.3371 -0.825109
head 5.92767 -7.23711 -0.813121
rclavicle 5.76476e-015 -1.13307e-014
rhumerus 3.54177 -14.3191 -69.8826
rradius 45.3021
rwrist -21.3586
rhand -20.2678 4.64196
rfingers 7.12502
rthumb 6.08129 -25.2508
lclavicle 5.76476e-015 -1.13307e-014
lhumerus -60.7142 18.3728 42.0936
lradius 33.0979
lwrist 8.51476
lhand -13.6947 4.63773
lfingers 7.12502
lthumb 12.4235 34.2485
rfemur 26.6577 -6.24669 27.2683
rtibia -5.725e-014
rfoot 1.95202 -20.3607
rtoes -15.0205
lfemur -39.6941 -4.56088 -14.1848
ltibia 35.0647
lfoot -1.80047 6.37307
ltoes -15.1947
241
root -0.406969 17.3939 -22.492 5.50722 8.46502 -4.52041
lowerback 5.4558 11.5072 6.12408
upperback -0.559367 15.6979 -1.28734
thorax -1.59736 7.78015 -5.39248
lowerneck -13.344 -11.369 -4.67383
upperneck 11.6473 -14.3027 -0.874551
head 5.95349 -7.21746 -0.853036
rclavicle -1.00461e-013 -9.93923e-016
rhumerus 3.16147 -14.2111 -69.9183
rradius 45.1713
rwrist -21.2645
rhand -20.3284 4.65562
rfingers 7.12502
rthumb 6.02275 -25.2388
lclavicle -1.00461e-013 -9.93923e-016
lhumerus -60.6693 18.3555 42.4355
lradius 33.2425
lwrist 8.80169
lhand -13.64 4.61857
lfingers 7.12502
lthumb 12.4762 34.2262
rfemur 27.0175 -6.13038 27.0326
rtibia 9.54166e-015
rfoot 4.03048 -20.0689
rtoes -14.7509
lfemur -39.1555 -4.07036 -14.5835
ltibia 35.3718
lfoot -2.00964 6.0854
ltoes -13.9041
